<svg width="32" height="32" viewBox="0 0 32 32" fill="none" xmlns="http://www.w3.org/2000/svg">
<path id="Fill 1" fill-rule="evenodd" clip-rule="evenodd" d="M15.564 0C13.4382 0 11.4263 0.404915 9.5282 1.21475C7.63014 2.02459 5.97253 3.1381 4.55531 4.55531C3.1381 5.97253 2.02459 7.63014 1.21475 9.5282C0.404913 11.4263 0 13.4382 0 15.564C0 17.6898 0.404913 19.7017 1.21475 21.5998C2.02459 23.4978 3.1381 25.1555 4.55531 26.5727C5.97253 27.9899 7.63014 29.1034 9.5282 29.9132C11.4263 30.7231 13.4382 31.128 15.564 31.128C17.6898 31.128 19.7017 30.7231 21.5998 29.9132C23.4978 29.1034 25.1555 27.9899 26.5727 26.5727C27.9899 25.1555 29.1034 23.4978 29.9132 21.5998C30.7231 19.7017 31.128 17.6898 31.128 15.564C31.128 13.4382 30.7231 11.4263 29.9132 9.5282C29.1034 7.63014 27.9899 5.97253 26.5727 4.55531C25.1555 3.1381 23.4978 2.02459 21.5998 1.21475C19.7017 0.404915 17.6898 0 15.564 0ZM15.564 1.29067C17.538 1.29067 19.3854 1.67028 21.1063 2.4295C22.8272 3.18872 24.3456 4.20101 25.6616 5.46638C26.927 6.78237 27.9393 8.30079 28.6985 10.0217C29.4577 11.7426 29.8373 13.59 29.8373 15.564C29.8373 16.4244 29.7614 17.2722 29.6095 18.1074C29.4577 18.9425 29.2299 19.7397 28.9262 20.4989C28.6732 21.2581 28.3315 21.992 27.9013 22.7007C27.4711 23.4093 27.0029 24.0672 26.4967 24.6746C26.1424 24.5228 25.6869 24.3456 25.1302 24.1432C24.5734 23.9407 23.966 23.7129 23.308 23.4599C22.7006 23.2574 22.068 23.055 21.41 22.8525C20.752 22.65 20.1699 22.4729 19.6638 22.321C19.5625 22.2704 19.4993 22.2072 19.474 22.1312C19.4487 22.0553 19.436 21.8402 19.436 21.4859C19.436 21.1822 19.4866 20.8785 19.5879 20.5748C19.6891 20.2711 19.8156 19.9928 19.9675 19.7397C20.0687 19.4866 20.1952 19.1323 20.3471 18.6768C20.4989 18.2213 20.6001 17.791 20.6508 17.3861C20.8026 17.1837 20.9798 16.8926 21.1822 16.513C21.3847 16.1334 21.5365 15.6146 21.6377 14.9566C21.7896 14.3492 21.8529 13.9064 21.8276 13.628C21.8022 13.3496 21.739 13.0839 21.6377 12.8308C21.6377 12.8308 21.6251 12.8181 21.5998 12.7928C21.5745 12.7675 21.5618 12.7549 21.5618 12.7549C21.5618 12.603 21.5745 12.2234 21.5998 11.6161C21.6251 11.0087 21.6884 10.4013 21.7896 9.79393C21.8908 9.43962 21.8655 8.89552 21.7137 8.16161C21.5618 7.42769 21.2328 6.70644 20.7267 5.99783C20.5242 5.79537 20.2965 5.56761 20.0434 5.31453C19.7903 5.06146 19.4866 4.859 19.1323 4.70716C18.778 4.5047 18.3731 4.32755 17.9176 4.1757C17.462 4.02386 16.9306 3.92263 16.3232 3.87202H15.0325C14.4252 3.92263 13.8937 4.02386 13.4382 4.1757C12.9826 4.32755 12.5777 4.5047 12.2234 4.70716C11.8691 4.859 11.5654 5.06146 11.3124 5.31453C11.0593 5.56761 10.8568 5.79537 10.705 5.99783C10.1482 6.70644 9.80658 7.42769 9.68005 8.16161C9.55351 8.89552 9.51554 9.43962 9.56616 9.79393C9.66739 10.4013 9.74331 11.0087 9.79393 11.6161C9.84454 12.2234 9.84454 12.603 9.79393 12.7549C9.79393 12.7549 9.79393 12.7675 9.79393 12.7928C9.79393 12.8181 9.76862 12.8308 9.718 12.8308C9.66739 13.0839 9.62943 13.3496 9.60412 13.628C9.57881 13.9064 9.61678 14.3492 9.718 14.9566C9.86985 15.6146 10.0343 16.1334 10.2115 16.513C10.3886 16.8926 10.5531 17.1837 10.705 17.3861C10.7556 17.791 10.8568 18.2213 11.0087 18.6768C11.1605 19.1323 11.2871 19.4866 11.3883 19.7397C11.4895 19.9422 11.5654 20.1952 11.6161 20.4989C11.6667 20.8026 11.692 21.1316 11.692 21.4859C11.692 21.8908 11.6793 22.1186 11.654 22.1692C11.6287 22.2198 11.5907 22.2704 11.5401 22.321C10.9834 22.4729 10.376 22.6627 9.718 22.8905C9.06001 23.1182 8.40203 23.3333 7.74403 23.5358C7.13665 23.7889 6.55459 24.0166 5.99783 24.2191C5.44107 24.4215 5.01085 24.5987 4.70716 24.7505C4.15039 24.1432 3.66956 23.4852 3.26464 22.7766C2.85972 22.068 2.50542 21.3088 2.20174 20.4989C1.89805 19.7397 1.67028 18.9425 1.51844 18.1074C1.36659 17.2722 1.29067 16.4244 1.29067 15.564C1.29067 13.59 1.67028 11.7426 2.4295 10.0217C3.18872 8.30079 4.20101 6.78237 5.46638 5.46638C6.78237 4.20101 8.30079 3.18872 10.0217 2.4295C11.7426 1.67028 13.59 1.29067 15.564 1.29067ZM5.61822 25.7375C5.97253 25.5857 6.4154 25.4212 6.94686 25.244C7.47831 25.0669 8.02241 24.8771 8.57918 24.6746C9.13594 24.4722 9.70535 24.2697 10.2874 24.0672C10.8695 23.8648 11.4136 23.6876 11.9197 23.5358C12.4765 23.3839 12.7928 23.1056 12.8688 22.7006C12.9447 22.2957 12.9826 21.8908 12.9826 21.4859C12.9826 21.1822 12.97 20.8279 12.9447 20.423C12.9194 20.0181 12.8055 19.6132 12.603 19.2082C12.4512 18.9552 12.3247 18.6262 12.2234 18.2213C12.1222 17.8163 12.0463 17.4114 11.9957 17.0065C11.9957 16.9559 11.9704 16.8926 11.9197 16.8167C11.8691 16.7408 11.8185 16.6775 11.7679 16.6269C11.6667 16.5257 11.5401 16.3232 11.3883 16.0195C11.2364 15.7158 11.1099 15.2603 11.0087 14.6529C10.9074 14.1974 10.8568 13.8937 10.8568 13.7419C10.8568 13.59 10.8821 13.4635 10.9328 13.3623C10.9834 13.3116 11.0087 13.261 11.0087 13.2104C11.0087 13.1598 11.0087 13.1092 11.0087 13.0586C11.1099 12.8055 11.1352 12.2994 11.0846 11.5401C11.034 10.7809 10.9581 10.1229 10.8568 9.56616C10.8062 9.3637 10.8315 8.9841 10.9328 8.42733C11.034 7.87057 11.2871 7.31381 11.692 6.75705C11.8944 6.55459 12.1095 6.35213 12.3373 6.14967C12.5651 5.94721 12.8308 5.79537 13.1345 5.69414C13.3876 5.5423 13.6786 5.42842 14.0076 5.35249C14.3366 5.27657 14.6782 5.21331 15.0325 5.16269H16.2473C16.6522 5.21331 17.0192 5.27657 17.3482 5.35249C17.6772 5.42842 17.9935 5.5423 18.2972 5.69414C18.5503 5.79537 18.8033 5.94721 19.0564 6.14967C19.3095 6.35213 19.5119 6.55459 19.6638 6.75705C20.1193 7.31381 20.385 7.87057 20.461 8.42733C20.5369 8.9841 20.5748 9.3637 20.5748 9.56616C20.4736 10.1229 20.385 10.7809 20.3091 11.5401C20.2332 12.2994 20.2458 12.8055 20.3471 13.0586C20.3471 13.1092 20.3597 13.1598 20.385 13.2104C20.4103 13.261 20.423 13.3116 20.423 13.3623C20.4736 13.4635 20.5116 13.59 20.5369 13.7419C20.5622 13.8937 20.5242 14.1974 20.423 14.6529C20.2712 15.2603 20.1193 15.7158 19.9675 16.0195C19.8156 16.3232 19.6891 16.5257 19.5879 16.6269C19.5372 16.6775 19.4866 16.7408 19.436 16.8167C19.3854 16.8926 19.3601 16.9559 19.3601 17.0065C19.3601 17.4114 19.2968 17.8163 19.1703 18.2213C19.0437 18.6262 18.9046 18.9552 18.7527 19.2082C18.6515 19.5119 18.5249 19.8536 18.3731 20.2332C18.2213 20.6128 18.1453 21.0304 18.1453 21.4859C18.1453 21.8402 18.196 22.2198 18.2972 22.6247C18.3984 23.0296 18.7274 23.3333 19.2842 23.5358C19.7397 23.6876 20.2585 23.8521 20.8406 24.0293C21.4226 24.2064 21.992 24.3962 22.5488 24.5987C23.1056 24.8012 23.6497 24.991 24.1811 25.1681C24.7126 25.3453 25.1808 25.5098 25.5857 25.6616C24.9277 26.3196 24.2191 26.9017 23.4599 27.4078C22.7006 27.914 21.9161 28.3442 21.1063 28.6985C20.2458 29.0528 19.3474 29.3312 18.4111 29.5336C17.4747 29.7361 16.5257 29.8373 15.564 29.8373C14.6023 29.8373 13.6659 29.7361 12.7549 29.5336C11.8438 29.3312 10.9581 29.0528 10.0976 28.6985C9.23716 28.3442 8.43999 27.9266 7.70608 27.4458C6.97216 26.9649 6.27621 26.3955 5.61822 25.7375Z" fill="#505050"/>
</svg>
